# xmcd
#
# Track frame offsets: 
#        182
#        26932
#        56300
#        80635
#        104020
#        128785
#        151050
#        172315
#        195080
#        222512
#        245560
#        266837
#
# Disc length: 3806 seconds
#
# Revision: 5
# Processed by: cddbd v1.5.2PL0 Copyright (c) Steve Scherf et al.
# Submitted via: ExactAudioCopyFreeDBPlugin 1.0
#
DISCID=ad0edc0c
DTITLE=Various Artist - Smooth Grooves:  New Jack Ballads [Rhino]
DYEAR=1998
DGENRE=SMB
TTITLE0=Levert - (Pop, Pop, Pop) Goes the Mind
TTITLE1=Ready for the World - Love You Down
TTITLE2=The System - Don't Disturb This Groove
TTITLE3=Isley Jasper Isley - Insatiable Woman
TTITLE4=Kashif - Are You the Woman
TTITLE5=Guy - Goodbye Love
TTITLE6=Dreamboy - No One Can Treat Me Like U
TTITLE7=Troop - Still in Love
TTITLE8=Michael Cooper - Dinner for Two (Coop's 808 944 Mix)
TTITLE9=Surface - Happy (12' mix)
TTITLE10=The Gap Band - I Found My Baby
TTITLE11=The Jets - You Got it All
EXTD=YEAR: 1998
EXTT0=LEVERT\n
EXTT1=READY FOR THE WORLD\n
EXTT2=THE SYSTEM\n
EXTT3=ISLEY JASPER ISLEY\n
EXTT4=KASHIF\n
EXTT5=GUY\n
EXTT6=DREAMBOY\n
EXTT7=TROOP\n
EXTT8=MICHAEL COOPER\n
EXTT9=SURFACE\n
EXTT10=THE GAP BAND\n
EXTT11=THE JETS\n
PLAYORDER=
